<svg width="70" height="71" viewBox="0 0 70 71" fill="none" xmlns="http://www.w3.org/2000/svg">
<g clip-path="url(#clip0)">
<path d="M68.4614 34.3105C68.4576 15.8209 53.4656 0.835252 34.9754 0.83899C16.4858 0.842728 1.50017 15.8353 1.50391 34.3249C1.50711 48.8892 10.9252 61.7803 24.7995 66.2103C24.9319 66.252 25.0697 66.2733 25.2081 66.2728C25.4719 66.2723 25.7304 66.2018 25.9573 66.0677C26.2527 65.8931 26.4732 65.6154 26.5768 65.288L35.0315 38.4911C37.3429 38.4794 39.2068 36.5957 39.1945 34.2849C39.1827 31.9735 37.2997 30.1096 34.9883 30.1214C34.3666 30.124 33.753 30.2672 33.1944 30.5401L22.0251 19.3692C21.4707 18.8341 20.5879 18.8495 20.0528 19.4034C19.5305 19.9444 19.5305 20.801 20.0528 21.342L31.2162 32.5182C30.3596 34.2667 30.8493 36.3773 32.3895 37.5693L24.3338 63.1037C8.41354 57.2392 0.261689 39.5795 6.12618 23.6593C11.9907 7.73901 29.6503 -0.412841 45.5706 5.45165C61.4909 11.3161 69.6427 28.9763 63.7782 44.8961C60.913 52.6741 55.0261 58.9642 47.4548 62.3379L46.5842 58.2379C46.4251 57.4843 45.6844 57.0026 44.9308 57.1623C44.6931 57.213 44.4726 57.3247 44.291 57.4865L35.8978 64.9798C35.322 65.492 35.2708 66.3737 35.7835 66.9494C35.9501 67.1364 36.1637 67.2752 36.403 67.3516L47.1188 70.7717C47.8521 71.0072 48.6377 70.604 48.8732 69.8702C48.948 69.6384 48.9603 69.3917 48.9101 69.1535L48.0545 65.1304C60.4452 59.9068 68.4902 47.757 68.4614 34.3105ZM34.9829 32.9156C35.753 32.9156 36.3779 33.5404 36.3779 34.3105C36.3779 35.0812 35.753 35.7055 34.9829 35.7055C34.2123 35.7055 33.588 35.0812 33.588 34.3105C33.588 33.5404 34.2123 32.9156 34.9829 32.9156ZM39.5774 65.4306L44.3551 61.1688L45.6737 67.382L39.5774 65.4306Z" fill="#212121"/>
<path d="M33.5879 7.80627V10.5962C33.5879 11.3668 34.2122 11.9911 34.9828 11.9911C35.753 11.9911 36.3778 11.3668 36.3778 10.5962V7.80627C36.3778 7.03616 35.753 6.41132 34.9828 6.41132C34.2122 6.41132 33.5879 7.03616 33.5879 7.80627Z" fill="#2196F3"/>
<path d="M8.4787 32.9155C7.70805 32.9155 7.08374 33.5404 7.08374 34.3105C7.08374 35.0811 7.70805 35.7054 8.4787 35.7054H11.2686C12.0393 35.7054 12.6636 35.0811 12.6636 34.3105C12.6636 33.5404 12.0393 32.9155 11.2686 32.9155H8.4787Z" fill="#2196F3"/>
<path d="M61.4866 35.7054C62.2572 35.7054 62.8815 35.0811 62.8815 34.3105C62.8815 33.5404 62.2572 32.9155 61.4866 32.9155H58.6967C57.9265 32.9155 57.3017 33.5404 57.3017 34.3105C57.3017 35.0811 57.9265 35.7054 58.6967 35.7054H61.4866Z" fill="#2196F3"/>
</g>
<defs>
<clipPath id="clip0">
<rect width="70" height="70" fill="white" transform="translate(0 0.838989)"/>
</clipPath>
</defs>
</svg>
